<?xml version="1.0" encoding="utf-8"?>
<!-- Generator: Adobe Illustrator 24.0.3, SVG Export Plug-In . SVG Version: 6.00 Build 0)  -->
<svg version="1.1" id="Layer_1" xmlns="http://www.w3.org/2000/svg" xmlns:xlink="http://www.w3.org/1999/xlink" x="0px" y="0px"
	 viewBox="0 0 500 500" style="enable-background:new 0 0 500 500;" xml:space="preserve">
<style type="text/css">
	.st0{fill:#00376F;}
	.st1{fill:#E8E8E8;}
	.st2{fill:#F6F6F6;}
	.st3{fill:#B19CD9;}
	.st4{fill:#F40000;}
</style>
<path class="st0" d="M412,122H83.8c-13.3,0-24,10.7-24,24v5.9L249.2,264L436,151.9V146C436,132.7,425.3,122,412,122z"/>
<polygon class="st1" points="59.8,176.8 59.8,356.2 184.4,234.1 "/>
<polygon class="st1" points="436.7,176.8 313.9,234.1 436.7,356.2 "/>
<path class="st2" d="M59.8,356.2v7.8c0,8.3,6.7,15,15,15h346.9c8.3,0,15-6.7,15-15v-7.8L313.9,234.1L249.2,264l-64.8-29.9
	L59.8,356.2z"/>
<polygon class="st3" points="59.8,151.9 59.8,176.8 249.2,264 "/>
<polygon class="st3" points="436,151.9 249.2,264 436.7,176.8 "/>
<path class="st2" d="M259.3,109h-241c-7.2,0-13-5.8-13-13v-7c0-7.2,5.8-13,13-13h241c7.2,0,13,5.8,13,13v7
	C272.3,103.2,266.5,109,259.3,109z"/>
<path class="st2" d="M488,441H245c-6.6,0-12-5.4-12-12v-9c0-6.6,5.4-12,12-12h243c6.6,0,12,5.4,12,12v9C500,435.6,494.6,441,488,441
	z"/>
<path class="st2" d="M471.7,287h-35v-33h35c6.6,0,12,5.4,12,12v9C483.7,281.6,478.3,287,471.7,287z"/>
<polygon class="st4" points="264,259.4 257,266.5 258.8,276.4 249.9,271.9 241.1,276.7 242.6,266.8 235.3,259.9 245.2,258.3 
	249.5,249.2 254.1,258.1 "/>
<path class="st2" d="M277,492H127c-9.4,0-17-7.6-17-17v-9c0-9.4,7.6-17,17-17h150c9.4,0,17,7.6,17,17v9C294,484.4,286.4,492,277,492
	z"/>
<path class="st2" d="M484,58H368c-8.8,0-16-7.2-16-16V30c0-8.8,7.2-16,16-16h116c8.8,0,16,7.2,16,16v12C500,50.8,492.8,58,484,58z"
	/>
<path class="st2" d="M307,53H60c-5.5,0-10-4.5-10-10v0c0-5.5,4.5-10,10-10h247c5.5,0,10,4.5,10,10v0C317,48.5,312.5,53,307,53z"/>
<polyline class="st0" points="59,449 63,449 63,424 38,424 38,449 59,449 59,445 42,445 42,428 59,428 "/>
<polyline class="st0" points="334.6,105 338,105 338,84 317,84 317,105 334.6,105 334.6,101.6 320.4,101.6 320.4,87.4 334.6,87.4 
	"/>
<circle class="st3" cx="469.4" cy="109" r="5.9"/>
<circle class="st3" cx="162.5" cy="404.3" r="8"/>
<polygon class="st4" points="28.3,139.2 18,157.2 38.7,157.2 "/>
<polygon class="st4" points="414.8,458.8 401.3,482.2 428.3,482.2 "/>
<circle class="st2" cx="321.7" cy="470.5" r="20.9"/>
</svg>
